<?xml version="1.0" encoding="utf-8"?><svg version="1.1" id="Layer_1" xmlns="http://www.w3.org/2000/svg" xmlns:xlink="http://www.w3.org/1999/xlink" x="0px" y="0px" width="122.879px" height="100.232px" viewBox="0 0 122.879 100.232" enable-background="new 0 0 122.879 100.232" xml:space="preserve"><g><path d="M21.167,0h80.546c5.824,0,11.115,2.381,14.951,6.216c3.834,3.836,6.215,9.129,6.215,14.951v57.899 c0,5.82-2.381,11.113-6.217,14.949c-3.834,3.836-9.127,6.217-14.949,6.217H21.167c-5.822,0-11.114-2.381-14.951-6.217 C2.381,90.182,0,84.889,0,79.064V21.167c0-5.823,2.38-11.116,6.215-14.951C10.051,2.38,15.343,0,21.167,0L21.167,0L21.167,0z M58.754,19.41c0-0.705,0.357-1.319,0.939-1.737c0.464-0.334,1.081-0.541,1.747-0.541c0.658,0,1.279,0.208,1.744,0.543 c0.58,0.418,0.941,1.029,0.941,1.735v18.857c0,0.704-0.355,1.317-0.938,1.737c-0.465,0.334-1.082,0.542-1.748,0.542 c-0.658,0-1.279-0.208-1.745-0.544c-0.579-0.418-0.941-1.029-0.941-1.734V19.41L58.754,19.41z M69.992,29.669 c-0.635-0.272-1.119-0.762-1.391-1.347c-0.285-0.62-0.334-1.351-0.074-2.045c0.26-0.693,0.771-1.22,1.393-1.506 c0.617-0.285,1.346-0.335,2.039-0.078c4.74,1.737,8.387,4.607,10.869,8.305c2.543,3.784,3.85,8.411,3.85,13.553 c0,3.408-0.682,6.667-1.916,9.647c-1.283,3.098-3.156,5.881-5.477,8.199c-2.324,2.324-5.104,4.197-8.197,5.479 c-2.979,1.234-6.238,1.914-9.648,1.914c-3.407,0-6.667-0.684-9.646-1.916c-3.098-1.283-5.881-3.158-8.2-5.477 c-2.325-2.326-4.198-5.105-5.479-8.197c-1.233-2.98-1.913-6.239-1.913-9.649c0-5.143,1.307-9.77,3.849-13.554 c2.483-3.698,6.13-6.567,10.87-8.307l0.096-0.031c0.665-0.22,1.354-0.162,1.945,0.111c0.62,0.286,1.133,0.813,1.393,1.506 l0.005,0.014c0.256,0.694,0.205,1.422-0.082,2.039l-0.046,0.089c-0.295,0.576-0.803,1.049-1.459,1.295l-0.006,0.002 c-3.671,1.348-6.446,3.513-8.309,6.301c-1.928,2.885-2.9,6.469-2.9,10.533c0,2.696,0.535,5.262,1.503,7.6 c1.007,2.43,2.486,4.621,4.322,6.457c1.836,1.836,4.028,3.316,6.458,4.322c2.337,0.969,4.904,1.504,7.6,1.504 c2.695,0,5.263-0.535,7.599-1.504c2.432-1.008,4.621-2.486,6.457-4.322s3.316-4.027,4.322-6.457c0.971-2.338,1.504-4.904,1.504-7.6 c0-4.071-0.969-7.654-2.895-10.536c-1.861-2.786-4.637-4.948-8.314-6.295L69.992,29.669L69.992,29.669z M4.558,71.234 c0.78,2.924,2.316,5.545,4.381,7.637l0.093,0.086c3.115,3.115,7.415,5.051,12.138,5.051h80.542l0.17-0.002l1.818-0.113 c3.893-0.455,7.402-2.221,10.063-4.842l0.084-0.092c2.115-2.115,3.686-4.775,4.477-7.744V21.167c0-4.564-1.869-8.716-4.881-11.729 c-3.012-3.011-7.164-4.881-11.729-4.881H21.166c-4.565,0-8.717,1.869-11.729,4.88c-3.011,3.011-4.88,7.163-4.88,11.729v50.069 L4.558,71.234L4.558,71.234z"/></g></svg>